HIERARCHY
ROOT root
{
	OFFSET 0.000000 0.000000 0.000000
	CHANNELS 6 Xposition Yposition Zposition Zrotation Yrotation Xrotation
	JOINT lhip
	{
		OFFSET 0.058581 -0.082280 -0.017664
		CHANNELS 3 Zrotation Yrotation Xrotation
		JOINT lknee
		{
			OFFSET 0.043451 -0.386469 0.008037
			CHANNELS 3 Zrotation Yrotation Xrotation
			JOINT lankle
			{
				OFFSET -0.014790 -0.426874 -0.037428
				CHANNELS 3 Zrotation Yrotation Xrotation
				JOINT ltoe
				{
					OFFSET 0.041054 -0.060286 0.122042
					CHANNELS 3 Zrotation Yrotation Xrotation
					End Site
					{
						OFFSET 0.000000 0.000000 0.000000
					}
				}
			}
		}
	}
	JOINT rhip
	{
		OFFSET -0.060310 -0.090513 -0.013543
		CHANNELS 3 Zrotation Yrotation Xrotation
		JOINT rknee
		{
			OFFSET -0.043257 -0.383688 -0.004843
			CHANNELS 3 Zrotation Yrotation Xrotation
			JOINT rankle
			{
				OFFSET 0.019056 -0.420046 -0.034562
				CHANNELS 3 Zrotation Yrotation Xrotation
				JOINT rtoe
				{
					OFFSET -0.034840 -0.062106 0.130323
					CHANNELS 3 Zrotation Yrotation Xrotation
					End Site
					{
						OFFSET 0.000000 0.000000 0.000000
					}
				}
			}
		}
	}
	JOINT lowerback
	{
		OFFSET 0.004439 0.124404 -0.038385
		CHANNELS 3 Zrotation Yrotation Xrotation
		JOINT upperback
		{
			OFFSET 0.004488 0.137956 0.026820
			CHANNELS 3 Zrotation Yrotation Xrotation
			JOINT chest
			{
				OFFSET -0.002265 0.056032 0.002855
				CHANNELS 3 Zrotation Yrotation Xrotation
				JOINT lowerneck
				{
					OFFSET -0.013390 0.211636 -0.033468
					CHANNELS 3 Zrotation Yrotation Xrotation
					JOINT upperneck
					{
						OFFSET 0.010113 0.088937 0.050410
						CHANNELS 3 Zrotation Yrotation Xrotation
						End Site
						{
							OFFSET 0.000000 0.000000 0.000000
						}
					}
				}
				JOINT lclavicle
				{
					OFFSET 0.071702 0.114000 -0.018898
					CHANNELS 3 Zrotation Yrotation Xrotation
					JOINT lshoulder
					{
						OFFSET 0.122921 0.045205 -0.019046
						CHANNELS 3 Zrotation Yrotation Xrotation
						JOINT lelbow
						{
							OFFSET 0.255332 -0.015649 -0.022946
							CHANNELS 3 Zrotation Yrotation Xrotation
							JOINT lwrist
							{
								OFFSET 0.265709 0.012698 -0.007375
								CHANNELS 3 Zrotation Yrotation Xrotation
								End Site
								{
									OFFSET 0.000000 0.000000 0.000000
								}
							}
						}
					}
				}
				JOINT rclavicle
				{
					OFFSET -0.082954 0.112472 -0.023707
					CHANNELS 3 Zrotation Yrotation Xrotation
					JOINT rshoulder
					{
						OFFSET -0.113228 0.046853 -0.008472
						CHANNELS 3 Zrotation Yrotation Xrotation
						JOINT relbow
						{
							OFFSET -0.260127 -0.014369 -0.031269
							CHANNELS 3 Zrotation Yrotation Xrotation
							JOINT rwrist
							{
								OFFSET -0.269108 0.006794 -0.006027
								CHANNELS 3 Zrotation Yrotation Xrotation
								End Site
								{
									OFFSET 0.000000 0.000000 0.000000
								}
							}
						}
					}
				}
			}
		}
	}
}
MOTION
Frames: 6
Frame Time: 0.033333
-0.011697 0.224181 1.004670 87.140471 0.865335 88.061637 2.978632 3.774812 3.096739 0.702164 -6.505186 -1.534504 -0.955838 7.882277 -3.100571 0.000000 -0.000000 0.000000 -0.992821 -3.583647 2.505250 -2.238810 2.385528 -1.741290 3.428917 -5.386156 -1.360223 0.000000 -0.000000 0.000000 1.537160 1.741672 3.842622 -0.325520 -3.215943 7.468813 0.006827 -0.882920 -5.110603 -3.687508 -3.102084 -4.071645 1.343232 -1.216438 -7.215216 -23.148785 -8.559120 7.846753 -48.354561 -7.388053 8.793854 6.793202 -27.752155 11.179497 -1.937081 -5.209041 5.482273 20.312860 12.788199 6.087700 62.178976 8.837969 13.608707 -6.636418 17.426298 1.966814 17.880544 3.134868 -7.226846 
-0.012691 0.224750 1.004878 87.545577 0.963560 88.099108 3.048804 3.672966 2.894973 0.702529 -6.952503 -1.470104 -1.149447 7.832156 -3.009466 0.000000 -0.000000 0.000000 -0.777374 -3.654079 2.266265 -2.435062 2.325920 -1.307067 3.517918 -5.847817 -1.630998 0.000000 -0.000000 0.000000 1.594637 1.601692 4.134858 -0.278007 -3.364261 6.494361 0.174857 -0.891197 -4.485391 -3.438522 -3.251763 -3.949722 1.636065 -1.432530 -7.033465 -22.890287 -9.266621 7.668109 -48.742206 -8.033361 9.183662 6.676288 -26.710642 12.516333 -0.080287 -5.405509 6.031083 20.151615 13.314688 5.921503 61.777288 8.839814 13.750773 -6.948329 15.822638 3.512242 14.796014 3.160781 -4.787672 
-0.013348 0.225435 1.004927 88.109676 1.073195 88.135130 3.098242 3.443526 2.732942 0.741441 -7.119933 -1.530275 -1.050964 7.668482 -2.739964 0.000000 -0.000000 0.000000 -0.587669 -3.613568 2.300978 -2.574118 2.124724 -1.459640 3.645016 -5.973476 -1.471131 0.000000 -0.000000 0.000000 1.617222 1.443843 4.190160 -0.157450 -3.620048 6.125620 0.320914 -1.053947 -4.304408 -3.190022 -3.384206 -3.837646 1.933031 -1.469760 -6.649780 -22.614803 -9.702954 7.576236 -49.910552 -8.940977 9.414001 7.050355 -25.266875 13.197385 0.352091 -5.115537 5.786507 19.930142 13.395190 5.927538 61.526559 9.187128 13.661257 -7.116848 14.587191 4.649678 13.431275 2.624850 -3.467997 
-0.014085 0.226378 1.004756 88.597976 1.132311 88.292798 3.081745 3.384504 2.499831 0.819056 -7.097906 -1.645089 -1.034221 7.296591 -2.587902 0.000000 -0.000000 0.000000 -0.609309 -3.769620 2.134198 -2.486568 1.742667 -1.301874 3.510042 -5.974186 -1.362783 0.000000 -0.000000 0.000000 1.620858 1.456213 3.999484 -0.079788 -3.810105 6.107092 0.389036 -1.207396 -4.238630 -2.679188 -3.592366 -4.017769 2.465634 -1.844028 -6.214651 -22.787534 -10.338618 7.495425 -51.618275 -10.060670 9.656922 7.760957 -23.321122 12.960952 -0.028232 -4.533361 6.413855 19.855642 13.004811 5.994833 61.200339 9.634307 12.721284 -7.629340 14.087159 5.175248 13.865013 2.028130 -3.212729 
-0.014411 0.226859 1.004481 88.704546 1.094729 88.288724 3.060407 3.273493 2.554134 0.768663 -6.960991 -1.795666 -0.994740 7.222913 -2.578627 0.000000 -0.000000 0.000000 -0.717908 -3.838827 2.166876 -2.452845 1.627392 -1.362780 3.612319 -5.893782 -1.250477 0.000000 -0.000000 0.000000 1.648873 1.618035 4.008318 -0.166353 -3.814215 6.094222 0.315274 -1.244988 -4.231009 -2.311436 -3.943537 -4.141473 2.959851 -2.021142 -5.954434 -23.025320 -10.540829 7.465213 -52.596123 -10.599012 9.895988 7.910206 -22.595244 12.868598 -0.182870 -4.460450 6.569980 19.788421 12.745379 5.892176 61.273381 9.623736 12.274443 -7.953441 14.090915 4.726319 14.534934 1.838871 -4.100179 
-0.015088 0.227273 1.004336 88.731337 1.097026 88.492835 3.102864 3.369553 2.257970 0.631140 -6.988023 -1.665800 -0.891712 6.833940 -2.561422 0.000000 -0.000000 0.000000 -0.785008 -4.106198 1.926066 -2.401894 1.644866 -1.435310 3.661058 -5.599574 -1.168102 0.000000 -0.000000 0.000000 1.689495 1.712311 3.878245 -0.279985 -3.664893 5.961661 0.241862 -1.184531 -4.224356 -1.899080 -4.559939 -4.156922 3.491486 -2.149592 -5.834723 -23.638994 -10.445250 7.435770 -53.926382 -10.980856 10.374872 7.778012 -22.388466 13.499923 -0.350392 -4.199394 6.709149 19.625436 12.435797 5.874651 61.504225 9.506101 11.825057 -8.140538 14.461226 3.975395 15.315802 2.003909 -5.702581 
